<svg width="16" height="13" viewBox="0 0 16 13" fill="none" xmlns="http://www.w3.org/2000/svg">
<path d="M4.0625 2.54142e-09H11.9375C12.4627 -2.60544e-05 12.9682 0.200319 13.3507 0.56017C13.7333 0.92002 13.9642 1.41227 13.9963 1.9365L14 2.0625V4.578C14.4088 4.69405 14.7718 4.93347 15.0395 5.26355C15.3072 5.59363 15.4664 5.99828 15.4955 6.42225L15.5 6.5625V12.1875C15.5 12.33 15.4458 12.4672 15.3485 12.5713C15.2512 12.6755 15.118 12.7388 14.9758 12.7485C14.8337 12.7582 14.6931 12.7136 14.5825 12.6237C14.472 12.5337 14.3997 12.4052 14.3802 12.264L14.375 12.1875V10.5H1.625V12.1875C1.62499 12.3234 1.57577 12.4548 1.48642 12.5572C1.39708 12.6596 1.27367 12.7263 1.139 12.7448L1.0625 12.75C0.926572 12.75 0.795243 12.7008 0.692802 12.6114C0.590361 12.5221 0.523736 12.3987 0.50525 12.264L0.5 12.1875V6.5625C0.5 5.61825 1.1345 4.8225 2 4.57725V2.0625C1.99997 1.53729 2.20032 1.03184 2.56017 0.649277C2.92002 0.266709 3.41227 0.0358359 3.9365 0.00375009L4.0625 2.54142e-09ZM13.4375 5.625H2.5625C2.33041 5.62489 2.10652 5.71088 1.93418 5.86633C1.76183 6.02178 1.65327 6.23563 1.6295 6.4665L1.625 6.5625V9.375H14.375V6.5625C14.3749 6.33054 14.2888 6.10684 14.1334 5.93465C13.978 5.76246 13.7642 5.654 13.5335 5.63025L13.4375 5.625ZM11.9375 1.125H4.0625C3.83041 1.12489 3.60652 1.21088 3.43418 1.36633C3.26183 1.52178 3.15327 1.73563 3.1295 1.9665L3.125 2.0625V4.5H4.25C4.25 4.30109 4.32902 4.11032 4.46967 3.96967C4.61032 3.82902 4.80109 3.75 5 3.75H6.5C6.6837 3.75002 6.861 3.81747 6.99828 3.93954C7.13556 4.06161 7.22326 4.22981 7.24475 4.41225L7.25 4.5H8.75C8.75 4.30109 8.82902 4.11032 8.96967 3.96967C9.11032 3.82902 9.30109 3.75 9.5 3.75H11C11.1837 3.75002 11.361 3.81747 11.4983 3.93954C11.6356 4.06161 11.7233 4.22981 11.7448 4.41225L11.75 4.5H12.875V2.0625C12.8751 1.83041 12.7891 1.60652 12.6337 1.43418C12.4782 1.26183 12.2644 1.15327 12.0335 1.1295L11.9375 1.125Z" fill="#696969"/>
</svg>
