<svg width="65" height="19" viewBox="0 0 65 19" fill="none" xmlns="http://www.w3.org/2000/svg">
<path d="M2.25391 15.816C0.813906 14.184 0.0939063 12.112 0.0939063 9.6C0.0939063 7.088 0.821906 5.024 2.27791 3.408C3.73391 1.776 5.68591 0.959999 8.13391 0.959999C10.5979 0.959999 12.5499 1.768 13.9899 3.384C15.4459 4.984 16.1739 7.048 16.1739 9.576C16.1739 12.104 15.4539 14.184 14.0139 15.816C12.5739 17.432 10.6139 18.24 8.13391 18.24C5.65391 18.24 3.69391 17.432 2.25391 15.816ZM6.52591 10.296C5.86991 10.296 5.26191 10.088 4.70191 9.672C4.14191 9.256 3.72591 8.8 3.45391 8.304C3.37391 8.496 3.33391 8.928 3.33391 9.6C3.33391 11.264 3.76591 12.64 4.62991 13.728C5.50991 14.816 6.67791 15.36 8.13391 15.36C9.58991 15.36 10.7499 14.816 11.6139 13.728C12.4939 12.64 12.9339 11.272 12.9339 9.624C12.9339 7.976 12.4939 6.624 11.6139 5.568C10.7499 4.496 9.58991 3.96 8.13391 3.96C7.49391 3.96 6.92591 4.16 6.42991 4.56C5.93391 4.96 5.68591 5.48 5.68591 6.12C5.68591 6.984 5.97391 7.416 6.54991 7.416C7.30191 7.416 7.67791 6.904 7.67791 5.88H10.6779C10.6779 7.128 10.3499 8.176 9.69391 9.024C9.03791 9.872 7.98191 10.296 6.52591 10.296ZM22.4675 15.36H24.5555V18H17.4995V15.36H19.3475V2.64H17.4995V-1.43051e-06H22.4675V6.816C23.8435 6.112 25.0835 5.76 26.1875 5.76C27.6915 5.76 28.7315 6.2 29.3075 7.08C29.8835 7.96 30.1715 9.176 30.1715 10.728V15.48H32.1395V17.568C31.4515 17.936 30.6195 18.12 29.6435 18.12C28.6675 18.12 27.9875 17.904 27.6035 17.472C27.2355 17.04 27.0515 16.336 27.0515 15.36V10.728C27.0515 10.024 26.9555 9.504 26.7635 9.168C26.5715 8.816 26.1235 8.64 25.4195 8.64C24.7155 8.64 23.7315 9.12 22.4675 10.08V15.36ZM37.8191 15.36H39.3071V18H32.8511V15.36H34.6991V8.64H32.8511V6H37.0991L37.4591 7.176C38.6751 6.232 39.7951 5.76 40.8191 5.76C42.4191 5.76 43.5711 6.224 44.2751 7.152C45.8111 6.224 47.1551 5.76 48.3071 5.76C49.8111 5.76 50.8511 6.2 51.4271 7.08C52.0031 7.96 52.2911 9.176 52.2911 10.728V15.48H54.2591V17.568C53.5711 17.936 52.7391 18.12 51.7631 18.12C50.7871 18.12 50.1071 17.904 49.7231 17.472C49.3551 17.04 49.1711 16.336 49.1711 15.36V10.728C49.1711 10.024 49.0751 9.504 48.8831 9.168C48.6911 8.816 48.2671 8.64 47.6111 8.64C46.9551 8.64 46.1231 8.992 45.1151 9.696C45.1471 10.144 45.1631 10.488 45.1631 10.728V15.48H47.1311V18H40.7951V15.36H42.0431V10.728C42.0431 10.024 41.9471 9.504 41.7551 9.168C41.5631 8.816 41.1311 8.64 40.4591 8.64C39.7871 8.64 38.9071 9.12 37.8191 10.08V15.36ZM55.4561 13.824H58.2161V15.216C58.6641 15.296 59.1921 15.336 59.8001 15.336C61.0481 15.336 61.6721 15.128 61.6721 14.712C61.6721 14.552 61.2961 14.248 60.5441 13.8L57.6641 12.072C56.9601 11.64 56.4401 11.184 56.1041 10.704C55.7681 10.224 55.6001 9.624 55.6001 8.904C55.6001 7.912 56.0241 7.144 56.8721 6.6C57.7201 6.04 58.8721 5.76 60.3281 5.76C61.7841 5.76 63.1681 6.088 64.4801 6.744V10.32H61.7201V8.832C61.2561 8.704 60.7361 8.64 60.1601 8.64C59.2001 8.64 58.7201 8.816 58.7201 9.168C58.7201 9.216 58.7281 9.256 58.7441 9.288C58.7761 9.304 58.8001 9.328 58.8161 9.36C58.8321 9.376 58.8561 9.4 58.8881 9.432C58.9201 9.448 58.9521 9.464 58.9841 9.48C59.0161 9.496 59.0561 9.52 59.1041 9.552C59.1521 9.584 59.1921 9.616 59.2241 9.648C59.2721 9.664 59.3281 9.696 59.3921 9.744C59.4721 9.792 59.5441 9.832 59.6081 9.864L62.8481 11.832C64.1441 12.632 64.7921 13.592 64.7921 14.712C64.7921 15.816 64.3361 16.68 63.4241 17.304C62.5121 17.912 61.2321 18.216 59.5841 18.216C57.9361 18.216 56.5601 17.912 55.4561 17.304V13.824Z" fill="#051923"/>
</svg>
