<svg width="18" height="18" viewBox="0 0 18 18" fill="none" xmlns="http://www.w3.org/2000/svg">
<path d="M1.55254 3.45003C2.15254 0.855034 6.06004 0.855034 6.65254 3.45003C7.00504 4.97253 6.03754 6.26253 5.19754 7.06503C4.58254 7.65003 3.61504 7.64253 3.00004 7.06503C2.16754 6.26253 1.20004 4.97253 1.55254 3.45003Z" stroke="#696969" stroke-width="1.5"/>
<path d="M11.3025 12.45C11.9025 9.85503 15.8325 9.85503 16.4325 12.45C16.785 13.9725 15.8175 15.2625 14.97 16.065C14.355 16.65 13.38 16.6425 12.765 16.065C11.9175 15.2625 10.95 13.9725 11.3025 12.45Z" stroke="#696969" stroke-width="1.5"/>
<path d="M9.00002 3.75H11.01C12.3975 3.75 13.0425 5.4675 12 6.3825L6.00752 11.625C4.96502 12.5325 5.61002 14.25 6.99002 14.25H9.00002" stroke="#696969" stroke-width="1.5" stroke-linecap="round" stroke-linejoin="round"/>
<path d="M4.11466 4.125H4.12333" stroke="#696969" stroke-width="2" stroke-linecap="round" stroke-linejoin="round"/>
<path d="M13.8647 13.125H13.8733" stroke="#696969" stroke-width="2" stroke-linecap="round" stroke-linejoin="round"/>
</svg>
